<svg width="4029" height="512" viewBox="0 0 4029 512" fill="none" xmlns="http://www.w3.org/2000/svg">
<g clip-path="url(#clip0_124_60)">
<rect width="512" height="512" rx="25" fill="#0080FF"/>
<path d="M115 219H305L259.5 299H115V219Z" fill="white"/>
<path d="M115 368H216L170.5 448H115V368Z" fill="white"/>
<path d="M115 63H397L352 143H115V63Z" fill="white"/>
<path d="M759.664 34.4375V461H664.156V34.4375H759.664ZM927.535 214.32V288.148H733.004V214.32H927.535ZM946.285 34.4375V108.559H733.004V34.4375H946.285ZM1271.19 387.172V461H1055.86V387.172H1271.19ZM1088.38 34.4375V461H992.867V34.4375H1088.38ZM1654.39 238.344V257.387C1654.39 289.809 1649.9 318.91 1640.91 344.691C1632.12 370.473 1619.53 392.445 1603.12 410.609C1586.91 428.773 1567.57 442.738 1545.11 452.504C1522.85 462.074 1498.14 466.859 1470.99 466.859C1443.84 466.859 1419.04 462.074 1396.58 452.504C1374.12 442.738 1354.59 428.773 1337.98 410.609C1321.58 392.445 1308.88 370.473 1299.9 344.691C1290.91 318.91 1286.42 289.809 1286.42 257.387V238.344C1286.42 205.922 1290.91 176.82 1299.9 151.039C1308.88 125.062 1321.48 102.992 1337.69 84.8281C1354.1 66.6641 1373.53 52.7969 1395.99 43.2266C1418.45 33.4609 1443.26 28.5781 1470.41 28.5781C1497.55 28.5781 1522.36 33.4609 1544.82 43.2266C1567.28 52.7969 1586.62 66.6641 1602.83 84.8281C1619.23 102.992 1631.93 125.062 1640.91 151.039C1649.9 176.82 1654.39 205.922 1654.39 238.344ZM1558 257.387V237.758C1558 216.078 1556.05 196.938 1552.14 180.336C1548.24 163.539 1542.57 149.477 1535.15 138.148C1527.73 126.82 1518.55 118.324 1507.61 112.66C1496.68 106.801 1484.27 103.871 1470.41 103.871C1455.95 103.871 1443.36 106.801 1432.61 112.66C1421.87 118.324 1412.79 126.82 1405.37 138.148C1398.14 149.477 1392.57 163.539 1388.67 180.336C1384.96 196.938 1383.1 216.078 1383.1 237.758V257.387C1383.1 278.871 1384.96 298.012 1388.67 314.809C1392.57 331.41 1398.24 345.473 1405.66 356.996C1413.08 368.52 1422.16 377.211 1432.91 383.07C1443.84 388.93 1456.54 391.859 1470.99 391.859C1484.86 391.859 1497.16 388.93 1507.91 383.07C1518.84 377.211 1528.02 368.52 1535.45 356.996C1542.87 345.473 1548.43 331.41 1552.14 314.809C1556.05 298.012 1558 278.871 1558 257.387ZM2068.65 238.344V257.387C2068.65 289.809 2064.16 318.91 2055.17 344.691C2046.38 370.473 2033.79 392.445 2017.38 410.609C2001.17 428.773 1981.83 442.738 1959.37 452.504C1937.11 462.074 1912.4 466.859 1885.25 466.859C1858.1 466.859 1833.3 462.074 1810.84 452.504C1788.38 442.738 1768.84 428.773 1752.24 410.609C1735.84 392.445 1723.14 370.473 1714.16 344.691C1705.17 318.91 1700.68 289.809 1700.68 257.387V238.344C1700.68 205.922 1705.17 176.82 1714.16 151.039C1723.14 125.062 1735.74 102.992 1751.95 84.8281C1768.36 66.6641 1787.79 52.7969 1810.25 43.2266C1832.71 33.4609 1857.52 28.5781 1884.66 28.5781C1911.81 28.5781 1936.62 33.4609 1959.08 43.2266C1981.54 52.7969 2000.88 66.6641 2017.09 84.8281C2033.49 102.992 2046.19 125.062 2055.17 151.039C2064.16 176.82 2068.65 205.922 2068.65 238.344ZM1972.26 257.387V237.758C1972.26 216.078 1970.31 196.938 1966.4 180.336C1962.5 163.539 1956.83 149.477 1949.41 138.148C1941.99 126.82 1932.81 118.324 1921.87 112.66C1910.93 106.801 1898.53 103.871 1884.66 103.871C1870.21 103.871 1857.61 106.801 1846.87 112.66C1836.13 118.324 1827.05 126.82 1819.62 138.148C1812.4 149.477 1806.83 163.539 1802.93 180.336C1799.21 196.938 1797.36 216.078 1797.36 237.758V257.387C1797.36 278.871 1799.21 298.012 1802.93 314.809C1806.83 331.41 1812.5 345.473 1819.92 356.996C1827.34 368.52 1836.42 377.211 1847.16 383.07C1858.1 388.93 1870.8 391.859 1885.25 391.859C1899.12 391.859 1911.42 388.93 1922.16 383.07C1933.1 377.211 1942.28 368.52 1949.7 356.996C1957.12 345.473 1962.69 331.41 1966.4 314.809C1970.31 298.012 1972.26 278.871 1972.26 257.387ZM2262.3 461H2168.55L2169.14 387.172H2262.3C2283.59 387.172 2301.56 382.289 2316.21 372.523C2330.86 362.562 2341.99 347.914 2349.61 328.578C2357.22 309.047 2361.03 285.316 2361.03 257.387V237.758C2361.03 216.664 2358.88 198.109 2354.59 182.094C2350.29 165.883 2343.94 152.309 2335.54 141.371C2327.14 130.434 2316.7 122.23 2304.2 116.762C2291.89 111.293 2277.73 108.559 2261.71 108.559H2166.79V34.4375H2261.71C2290.62 34.4375 2316.99 39.3203 2340.82 49.0859C2364.84 58.8516 2385.54 72.8164 2402.93 90.9805C2420.5 109.145 2434.08 130.629 2443.65 155.434C2453.22 180.238 2458 207.875 2458 238.344V257.387C2458 287.66 2453.22 315.297 2443.65 340.297C2434.08 365.102 2420.5 386.586 2402.93 404.75C2385.54 422.719 2364.94 436.586 2341.11 446.352C2317.28 456.117 2291.01 461 2262.3 461ZM2222.75 34.4375V461H2127.24V34.4375H2222.75ZM2761.52 318.031H2856.44C2854.88 347.328 2846.87 373.207 2832.42 395.668C2818.16 417.934 2798.34 435.414 2772.95 448.109C2747.55 460.609 2717.38 466.859 2682.42 466.859C2654.49 466.859 2629.49 462.074 2607.42 452.504C2585.35 442.934 2566.6 429.262 2551.17 411.488C2535.93 393.52 2524.21 371.938 2516.01 346.742C2508 321.352 2504 292.738 2504 260.902V234.828C2504 202.992 2508.2 174.379 2516.6 148.988C2525 123.598 2537.01 101.918 2552.63 83.9492C2568.26 65.9805 2587.01 52.2109 2608.88 42.6406C2630.76 33.0703 2655.17 28.2852 2682.12 28.2852C2718.45 28.2852 2749.12 34.8281 2774.12 47.9141C2799.12 61 2818.45 78.9688 2832.12 101.82C2845.99 124.672 2854.29 150.746 2857.03 180.043H2761.81C2761.03 163.441 2757.91 149.477 2752.44 138.148C2746.97 126.625 2738.57 117.934 2727.24 112.074C2715.91 106.215 2700.88 103.285 2682.12 103.285C2668.45 103.285 2656.44 105.824 2646.09 110.902C2635.93 115.98 2627.44 123.891 2620.6 134.633C2613.96 145.375 2608.98 159.047 2605.66 175.648C2602.34 192.055 2600.68 211.586 2600.68 234.242V260.902C2600.68 283.363 2602.14 302.797 2605.07 319.203C2608 335.609 2612.69 349.184 2619.14 359.926C2625.78 370.668 2634.27 378.676 2644.62 383.949C2654.98 389.223 2667.57 391.859 2682.42 391.859C2699.41 391.859 2713.57 389.223 2724.9 383.949C2736.23 378.48 2744.92 370.277 2750.97 359.34C2757.03 348.402 2760.54 334.633 2761.52 318.031ZM3086.71 115.59L2976.56 461H2874.61L3032.52 34.4375H3096.97L3086.71 115.59ZM3178.12 461L3067.67 115.59L3056.25 34.4375H3121.58L3280.07 461H3178.12ZM3173.43 302.211V376.039H2951.07V302.211H3173.43ZM3536.71 348.5C3536.71 341.273 3535.64 334.828 3533.49 329.164C3531.34 323.305 3527.44 317.934 3521.77 313.051C3516.11 308.168 3508.1 303.285 3497.75 298.402C3487.4 293.324 3473.82 288.148 3457.03 282.875C3437.89 276.625 3419.62 269.594 3402.24 261.781C3385.05 253.773 3369.72 244.496 3356.25 233.949C3342.77 223.402 3332.12 211.098 3324.31 197.035C3316.7 182.973 3312.89 166.566 3312.89 147.816C3312.89 129.652 3316.89 113.246 3324.9 98.5977C3332.91 83.9492 3344.14 71.4492 3358.59 61.0977C3373.04 50.5508 3390.04 42.543 3409.57 37.0742C3429.1 31.4102 3450.58 28.5781 3474.02 28.5781C3505.27 28.5781 3532.71 34.1445 3556.34 45.2773C3580.17 56.2148 3598.73 71.6445 3612.01 91.5664C3625.29 111.293 3631.93 134.242 3631.93 160.414H3537.01C3537.01 148.891 3534.57 138.734 3529.68 129.945C3525 120.961 3517.77 113.93 3508 108.852C3498.43 103.773 3486.42 101.234 3471.97 101.234C3457.91 101.234 3446.09 103.383 3436.52 107.68C3427.14 111.781 3420.02 117.445 3415.13 124.672C3410.45 131.898 3408.1 139.809 3408.1 148.402C3408.1 155.238 3409.86 161.488 3413.38 167.152C3417.09 172.621 3422.36 177.797 3429.2 182.68C3436.23 187.367 3444.82 191.859 3454.98 196.156C3465.13 200.453 3476.75 204.555 3489.84 208.461C3512.69 215.688 3532.91 223.695 3550.48 232.484C3568.26 241.273 3583.2 251.234 3595.31 262.367C3607.42 273.5 3616.5 286.098 3622.55 300.16C3628.8 314.223 3631.93 330.141 3631.93 347.914C3631.93 366.859 3628.22 383.656 3620.8 398.305C3613.57 412.953 3603.02 425.453 3589.16 435.805C3575.48 445.961 3559.08 453.676 3539.94 458.949C3520.8 464.223 3499.41 466.859 3475.78 466.859C3454.29 466.859 3433.1 464.125 3412.2 458.656C3391.3 452.992 3372.36 444.398 3355.37 432.875C3338.57 421.352 3325.09 406.703 3314.94 388.93C3304.98 370.961 3300 349.672 3300 325.062H3395.5C3395.5 337.953 3397.36 348.891 3401.07 357.875C3404.78 366.664 3410.05 373.793 3416.89 379.262C3423.92 384.73 3432.42 388.637 3442.38 390.98C3452.34 393.324 3463.47 394.496 3475.78 394.496C3490.04 394.496 3501.56 392.543 3510.35 388.637C3519.33 384.535 3525.97 378.969 3530.27 371.938C3534.57 364.906 3536.71 357.094 3536.71 348.5ZM3886.81 34.4375V461H3791.6V34.4375H3886.81ZM4016.6 34.4375V108.559H3664.45V34.4375H4016.6Z" fill="#0080FF"/>
</g>
<defs>
<clipPath id="clip0_124_60">
<rect width="4029" height="512" fill="white"/>
</clipPath>
</defs>
</svg>
